# xmcd
#
# Track frame offsets: 
#        150
#        21470
#        35710
#        44862
#        72032
#        82757
#        108615
#        124440
#        133932
#        152320
#
# Disc length: 2217 seconds
#
# Revision: 0
# Processed by: cddbd v1.5.2PL0 Copyright (c) Steve Scherf et al.
# Submitted via: ExactAudioCopy v0.95b4
#
DISCID=8d08a70a
DTITLE=EZ and The Heat - Blues All My Life
DYEAR=1999
DGENRE=Blues
TTITLE0=Blues All My Life
TTITLE1=Sweet Sugar Gone
TTITLE2=Can't Kill Nothing
TTITLE3=My Woman's Trying To Poison Me
TTITLE4=Hillary Don't Believe Them
TTITLE5=Vagabond Blues
TTITLE6=You Don't Love Me No More
TTITLE7=Barefoot Boogie
TTITLE8=Serve The Purpose
TTITLE9=Amazing Grace - Circle Be Unbroken (Medley)
EXTD=
EXTT0=
EXTT1=
EXTT2=
EXTT3=
EXTT4=
EXTT5=
EXTT6=
EXTT7=
EXTT8=
EXTT9=
PLAYORDER=
